# 3ds Max Wavefront OBJ Exporter v0.97b - (c)2007 guruware
# File Created: 20.01.2013 02:15:16

mtllib wall.mtl

#
# object wall_pCube1
#

v  26.0000 12.0000 19.5369
v  20.0000 16.0000 23.0421
v  10.5756 17.1100 23.5223
v  8.0000 12.0000 19.5369
v  16.0000 0.0000 -9.0000
v  16.0000 0.0000 -0.0000
v  8.0000 -1.1494 -0.0000
v  8.0000 -1.1494 -20.9618
v  0.0000 12.0000 -9.0000
v  0.0000 28.3817 -24.0000
v  0.5628 10.0000 -24.0000
v  40.0000 8.7661 18.5275
v  26.0000 9.3300 19.5369
v  26.0000 4.5592 16.7195
v  24.0000 22.0000 23.5210
v  39.0000 24.0000 24.8292
v  32.0000 28.0000 24.0000
v  24.0000 34.0087 -16.3363
v  36.0000 32.3664 -12.0000
v  31.9658 32.1845 -17.9995
v  40.0000 1.4689 -12.0000
v  32.0000 -1.5415 -6.0000
v  31.9574 -1.1206 -21.2298
v  40.0000 1.4689 -20.9618
v  48.3007 -0.6972 8.3869
v  48.0000 0.0000 -0.0000
v  56.0000 0.0000 -0.0000
v  56.0630 -0.0248 9.0859
v  24.0000 -0.9443 7.5345
v  31.9281 -2.1857 7.6624
v  28.0000 -1.8401 11.4651
v  0.5206 10.6650 19.5369
v  2.0888 2.3287 15.0600
v  7.9999 0.1835 14.9642
v  16.0000 1.3300 14.9668
v  28.0000 0.0870 14.9668
v  8.6042 31.0486 12.2832
v  0.0000 32.0000 12.0000
v  0.0000 31.1260 20.5729
v  8.0000 28.8666 18.0000
v  16.0000 32.0000 18.0000
v  12.0000 29.8331 23.1458
v  24.0000 31.8197 23.1458
v  24.0000 33.9639 15.6484
v  36.0000 32.3664 12.0000
v  31.9664 30.7479 6.0003
v  24.0000 32.1311 6.0000
v  3.2914 1.0609 -12.0000
v  3.2914 1.0609 -20.9618
v  24.0000 -0.9443 -12.0000
v  24.0000 -4.4441 -6.0000
v  64.0000 5.1070 -0.0000
v  64.0000 1.7355 10.7440
v  64.0000 1.1070 6.0000
v  48.1530 11.0416 19.7289
v  48.1222 1.3155 15.9136
v  56.7347 10.5074 18.7763
v  45.2331 16.6501 22.4223
v  39.5905 16.0124 20.7874
v  64.0000 16.6821 22.9233
v  64.0000 26.6260 19.4479
v  52.0000 30.6184 23.1458
v  36.0000 30.6184 23.1458
v  32.0000 18.0000 23.0421
v  6.4788 26.2488 24.1112
v  0.0005 26.5730 24.2575
v  0.0000 18.0000 23.0421
v  16.0000 22.0000 24.6190
v  51.9794 32.2357 11.6510
v  64.0000 32.0000 12.0000
v  64.0000 26.2817 3.0000
v  52.0000 31.2962 4.5000
v  56.0000 32.7328 -12.0000
v  64.0000 27.0000 -14.2500
v  64.0000 32.0000 -18.0000
v  56.0000 32.7328 -18.0000
v  56.0000 29.9523 -24.0000
v  36.0000 29.5859 -24.0000
v  16.1831 32.7624 -15.0311
v  15.0011 29.3584 -24.0014
v  7.9953 33.8063 -13.0395
v  0.0000 31.1622 -12.0000
v  0.0000 29.7256 -6.0000
v  8.0000 30.5634 -6.0000
v  16.0000 30.5634 -6.0000
v  16.0000 30.5634 6.0000
v  24.0000 32.1311 -6.0000
v  56.0000 0.0000 -12.0000
v  61.9698 1.1070 -12.0000
v  62.6473 1.1070 -6.0000
v  47.4633 -2.4639 -6.0312
v  40.0000 1.4689 -0.0000
v  40.0000 1.4689 -6.0000
v  40.0000 2.7989 15.9208
v  40.0000 1.4689 12.4191
v  16.0153 0.0765 9.9761
v  8.0961 -1.3637 10.1339
v  2.1509 1.0467 11.4156
v  2.1668 2.5304 3.0000
v  8.0000 -1.1494 6.0000
v  16.0000 2.5126 6.0000
v  24.0000 -2.5189 -0.0000
v  63.9708 8.6526 -12.3782
v  61.0915 0.0000 -18.0000
v  63.3225 6.0000 -18.0000
v  62.9378 7.5740 -23.9395
v  64.0453 29.2109 -24.0001
v  64.0000 32.0000 18.0000
v  -0.0057 8.5018 11.0821
v  0.0000 19.5000 7.1250
v  0.7670 9.6861 5.8249
v  0.0000 30.5634 6.0000
v  0.0000 31.1622 -18.0000
v  7.6084 30.2003 6.0398
v  0.0000 30.5634 0.0000
v  2.1668 2.5304 -7.5000
v  64.0000 10.5702 19.0322
v  56.0000 16.0000 23.0421
v  53.2840 32.2444 18.0006
v  36.0000 32.7488 18.0000
v  64.0000 30.5634 -6.0000
v  56.0000 31.2962 -6.0000
v  24.0000 30.7872 -24.0000
v  48.0000 1.4689 -20.9618
v  48.0000 1.4689 -12.0000
v  62.6473 1.1070 -0.0000
v  16.0000 0.0000 -20.9618
v  24.0000 -0.9443 -20.9618
v  32.0000 -1.5415 -0.0000
v  64.0000 3.6939 15.9208
v  2.1668 4.0000 -22.7274
v  36.0000 30.9298 -6.0000
v  59.8888 -0.1983 -20.9615
v  40.0000 1.4689 9.0689
# 134 vertices

vn -0.0123 -0.6378 0.7701
vn 0.1422 -0.9898 -0.0000
vn -0.9990 -0.0306 -0.0334
vn 0.0416 -0.5081 0.8603
vn -0.0926 0.0441 0.9947
vn 0.1893 0.9693 -0.1567
vn 0.3241 -0.9459 -0.0170
vn 0.0444 -0.9981 -0.0422
vn -0.1532 -0.9858 -0.0687
vn -0.0183 -0.4108 0.9116
vn -0.0393 -0.3798 0.9242
vn 0.2137 0.9534 0.2129
vn -0.1552 0.9490 0.2745
vn 0.1005 0.9658 -0.2389
vn -0.4249 -0.9052 -0.0000
vn 0.2991 -0.8243 -0.4808
vn 1.0000 0.0000 -0.0000
vn 0.0803 -0.3642 0.9278
vn -0.1876 -0.5029 0.8437
vn 0.1594 0.3634 0.9179
vn 0.0000 0.3101 0.9507
vn 0.1488 -0.4377 0.8867
vn -0.0152 0.2817 0.9594
vn -0.0271 -0.1075 0.9938
vn 0.1340 -0.1673 0.9767
vn 0.1808 0.9094 -0.3746
vn 0.3902 0.8193 0.4202
vn -0.0189 0.9100 -0.4142
vn 0.0318 0.9331 -0.3583
vn -0.1799 0.9258 0.3323
vn -0.1923 0.9813 0.0000
vn 0.2156 -0.9747 -0.0591
vn -0.3225 -0.9244 0.2037
vn -0.1680 -0.9216 0.3500
vn 0.1569 -0.9493 0.2725
vn -0.4425 -0.8890 -0.1175
vn -0.3595 -0.8933 0.2698
vn 0.9539 -0.2988 -0.0286
vn 0.9951 -0.0527 -0.0840
vn 1.0000 0.0042 0.0056
vn -0.9859 -0.0562 -0.1576
vn -1.0000 0.0000 -0.0000
vn -0.0101 -0.5144 0.8575
vn 0.0000 -0.0000 1.0000
vn 0.0477 0.9989 0.0000
vn 0.0831 0.9784 -0.1893
vn -0.0435 0.9909 -0.1277
vn -0.5335 -0.8458 -0.0000
vn 0.2602 -0.8968 0.3579
vn 0.0043 -0.3846 0.9231
vn -0.0494 -0.3782 0.9244
vn 0.0283 -0.1603 0.9867
vn -0.0756 -0.3676 0.9269
vn 0.0272 0.2722 0.9619
vn -0.0271 0.1637 0.9861
vn 0.1316 -0.2520 0.9587
vn 0.0142 0.9387 0.3444
vn 0.0187 0.9993 -0.0336
vn 0.2846 0.9224 0.2609
vn 0.3543 0.9249 -0.1380
vn 0.1101 0.9257 -0.3618
vn -0.1736 0.9191 -0.3537
vn 0.0000 -1.0000 -0.0000
vn 0.1485 -0.9888 -0.0156
vn 0.1890 -0.9735 0.1290
vn -0.1436 -0.9269 0.3469
vn -0.1486 -0.9862 -0.0735
vn 0.9665 -0.2517 -0.0501
vn 0.9595 -0.2599 -0.1084
vn -0.9706 -0.2194 -0.0988
vn -1.0000 0.0001 0.0000
vn 0.0993 -0.6943 0.7129
vn -0.0252 -0.4068 0.9132
vn 0.0952 -0.5714 0.8151
vn 0.1665 0.9375 -0.3055
vn -0.3626 0.9257 0.1080
vn -0.3477 0.8876 0.3020
vn 0.0639 0.9454 0.3196
vn 0.1128 0.9916 -0.0632
vn -0.2074 0.9724 0.1065
vn -0.1544 0.9650 -0.2121
vn -0.0422 -0.9990 -0.0173
vn -0.1172 -0.9931 -0.0000
vn 0.2329 -0.9602 0.1541
vn -0.4145 -0.9026 0.1158
vn -0.2793 -0.8294 -0.4838
vn 0.9264 -0.3133 -0.2089
vn -0.8971 -0.4410 -0.0268
vn -0.9709 -0.2391 -0.0139
vn -0.9775 -0.2105 0.0104
vn -0.9958 -0.0829 0.0386
vn 0.0275 -0.3613 0.9321
vn 0.0207 -0.5741 0.8186
vn -0.0182 -0.5354 0.8444
vn 0.0932 -0.5701 0.8163
vn 0.0192 -0.2214 0.9750
vn -0.0565 -0.3002 0.9522
vn 0.1016 -0.4943 0.8633
vn -0.2002 -0.4541 0.8682
vn -0.0650 0.5280 0.8468
vn -0.0033 0.1113 0.9938
vn 0.0211 -0.2410 0.9703
vn -0.1015 -0.1092 0.9888
vn 0.0149 -0.0894 0.9959
vn -0.0547 -0.2259 0.9726
vn 0.2384 0.6423 0.7284
vn 0.0212 0.9998 -0.0029
vn -0.0209 0.9826 -0.1848
vn 0.0831 0.9040 -0.4193
vn -0.0208 0.9998 -0.0082
vn -0.0228 0.9997 -0.0001
vn -0.0178 0.9724 0.2328
vn -0.0548 0.9102 -0.4105
vn -0.3140 0.9494 0.0000
vn -0.0201 0.9994 -0.0267
vn -0.0221 0.9996 0.0147
vn 0.1001 0.9421 0.3201
vn 0.1283 0.9913 0.0291
vn 0.0799 0.9769 0.1982
vn -0.1554 0.9670 0.2021
vn 0.1327 -0.9847 0.1126
vn -0.1557 -0.9875 -0.0229
vn 0.2092 -0.9765 0.0516
vn 0.0000 -0.9257 0.3782
vn -0.1504 -0.8193 -0.5533
vn 0.3522 -0.9359 -0.0000
vn -0.2347 -0.9203 -0.3129
vn 0.1371 -0.9282 0.3458
vn 0.0602 -0.9640 0.2592
vn 0.1904 -0.8901 0.4140
vn 0.2985 -0.9313 0.2089
vn -0.1673 -0.9699 0.1767
vn 0.3854 -0.9221 -0.0338
vn -0.2189 -0.9751 -0.0352
vn -0.3125 -0.9028 0.2955
vn 0.2824 -0.9389 0.1966
vn 0.2884 -0.9090 -0.3010
vn -0.0170 -0.9980 0.0610
vn -0.2594 -0.8239 -0.5038
vn 0.8941 -0.3903 -0.2198
vn 1.0000 -0.0011 0.0044
vn 1.0000 -0.0007 -0.0011
vn -0.9606 -0.2553 0.1096
vn -0.9894 -0.1135 0.0906
vn -1.0000 0.0005 0.0001
vn -1.0000 -0.0000 0.0000
# 146 vertex normals

vt 0.476600 0.093800 0.0000
vt 0.453100 0.125000 0.0000
vt 0.406300 0.140600 0.0000
vt 0.406300 0.078100 0.0000
vt 0.437500 0.828100 0.0000
vt 0.437500 0.875000 0.0000
vt 0.406300 0.875000 0.0000
vt 0.406300 0.796900 0.0000
vt 0.203100 0.115200 0.0000
vt 0.134800 0.211900 0.0000
vt 0.140600 0.078100 0.0000
vt 0.531300 0.046900 0.0000
vt 0.476600 0.062500 0.0000
vt 0.476600 0.031300 0.0000
vt 0.468800 0.171900 0.0000
vt 0.527300 0.187500 0.0000
vt 0.500000 0.218800 0.0000
vt 0.468800 0.453100 0.0000
vt 0.515600 0.437500 0.0000
vt 0.515600 0.468800 0.0000
vt 0.531300 0.812500 0.0000
vt 0.500000 0.828100 0.0000
vt 0.500000 0.765600 0.0000
vt 0.531300 0.765600 0.0000
vt 0.562500 0.921900 0.0000
vt 0.562500 0.875000 0.0000
vt 0.593800 0.875000 0.0000
vt 0.593800 0.929700 0.0000
vt 0.468800 0.921900 0.0000
vt 0.500000 0.921900 0.0000
vt 0.484400 0.968800 0.0000
vt 0.375000 0.078100 0.0000
vt 0.375000 0.015600 0.0000
vt 0.406300 0.015600 0.0000
vt 0.437500 0.000000 0.0000
vt 0.484400 0.000000 0.0000
vt 0.421900 0.312500 0.0000
vt 0.375000 0.312500 0.0000
vt 0.375000 0.265600 0.0000
vt 0.406300 0.281300 0.0000
vt 0.437500 0.281300 0.0000
vt 0.421900 0.250000 0.0000
vt 0.468800 0.250000 0.0000
vt 0.468800 0.296900 0.0000
vt 0.515600 0.312500 0.0000
vt 0.515600 0.359400 0.0000
vt 0.468800 0.359400 0.0000
vt 0.375000 0.812500 0.0000
vt 0.375000 0.765600 0.0000
vt 0.468800 0.812500 0.0000
vt 0.468800 0.843800 0.0000
vt 0.703100 0.070300 0.0000
vt 0.671900 0.000000 0.0000
vt 0.718800 0.000000 0.0000
vt 0.562500 0.070300 0.0000
vt 0.578100 0.000000 0.0000
vt 0.593800 0.070300 0.0000
vt 0.562500 0.140600 0.0000
vt 0.531300 0.132800 0.0000
vt 0.625000 0.164100 0.0000
vt 0.642600 0.220700 0.0000
vt 0.578100 0.250000 0.0000
vt 0.515600 0.250000 0.0000
vt 0.500000 0.140600 0.0000
vt 0.406300 0.203100 0.0000
vt 0.359400 0.203100 0.0000
vt 0.359400 0.140600 0.0000
vt 0.437500 0.171900 0.0000
vt 0.578100 0.312500 0.0000
vt 0.625000 0.312500 0.0000
vt 0.625000 0.359400 0.0000
vt 0.578100 0.359400 0.0000
vt 0.578100 0.437500 0.0000
vt 0.625000 0.437500 0.0000
vt 0.625000 0.468800 0.0000
vt 0.578100 0.468800 0.0000
vt 0.578100 0.500000 0.0000
vt 0.515600 0.500000 0.0000
vt 0.437500 0.453100 0.0000
vt 0.421900 0.500000 0.0000
vt 0.406300 0.453100 0.0000
vt 0.375000 0.437500 0.0000
vt 0.375000 0.406300 0.0000
vt 0.406300 0.406300 0.0000
vt 0.437500 0.406300 0.0000
vt 0.437500 0.359400 0.0000
vt 0.468800 0.406300 0.0000
vt 0.593800 0.812500 0.0000
vt 0.625000 0.812500 0.0000
vt 0.625000 0.843800 0.0000
vt 0.578100 0.843800 0.0000
vt 0.531300 0.875000 0.0000
vt 0.531300 0.843800 0.0000
vt 0.570300 0.984400 0.0000
vt 0.531300 1.000000 0.0000
vt 0.531300 0.968800 0.0000
vt 0.437500 0.953100 0.0000
vt 0.437500 1.000000 0.0000
vt 0.406300 1.000000 0.0000
vt 0.406300 0.953100 0.0000
vt 0.375000 0.953100 0.0000
vt 0.375000 0.890600 0.0000
vt 0.406300 0.906300 0.0000
vt 0.437500 0.906300 0.0000
vt 0.468800 0.875000 0.0000
vt 0.808600 0.070300 0.0000
vt 0.812500 0.000000 0.0000
vt 0.843800 0.000000 0.0000
vt 0.843800 0.046900 0.0000
vt 0.875000 0.046900 0.0000
vt 0.875000 0.179700 0.0000
vt 0.812500 0.199200 0.0000
vt 0.843800 0.234400 0.0000
vt 0.687500 0.250000 0.0000
vt 0.656300 0.250000 0.0000
vt 0.328100 0.078100 0.0000
vt 0.289100 0.152300 0.0000
vt 0.265600 0.078100 0.0000
vt 0.312500 0.250000 0.0000
vt 0.281300 0.250000 0.0000
vt 0.187500 0.250000 0.0000
vt 0.156300 0.250000 0.0000
vt 0.406300 0.359400 0.0000
vt 0.375000 0.375000 0.0000
vt 0.375000 0.343800 0.0000
vt 0.375000 0.843800 0.0000
vt 0.625000 0.070300 0.0000
vt 0.531300 0.000000 0.0000
vt 0.593800 0.140600 0.0000
vt 0.578100 0.281300 0.0000
vt 0.515600 0.281300 0.0000
vt 0.625000 0.406300 0.0000
vt 0.578100 0.406300 0.0000
vt 0.468800 0.500000 0.0000
vt 0.562500 0.765600 0.0000
vt 0.562500 0.812500 0.0000
vt 0.625000 0.875000 0.0000
vt 0.625000 0.906300 0.0000
vt 0.625000 0.953100 0.0000
vt 0.484400 1.000000 0.0000
vt 0.750000 0.000000 0.0000
vt 0.781300 0.000000 0.0000
vt 0.734400 0.199200 0.0000
vt 0.328100 0.015600 0.0000
vt 0.265600 0.015600 0.0000
vt 0.250000 0.250000 0.0000
vt 0.218800 0.250000 0.0000
vt 0.437500 0.765600 0.0000
vt 0.468800 0.765600 0.0000
vt 0.500000 0.875000 0.0000
vt 0.625000 0.000000 0.0000
vt 0.140600 0.000000 0.0000
vt 0.187500 0.000000 0.0000
vt 0.210900 0.015600 0.0000
vt 0.140600 0.031300 0.0000
vt 0.625000 0.281300 0.0000
vt 0.625000 0.500000 0.0000
vt 0.515600 0.406300 0.0000
vt 0.375000 0.500000 0.0000
vt 0.375000 0.468800 0.0000
vt 0.625000 0.781300 0.0000
vt 0.609400 0.757800 0.0000
vt 0.625000 1.000000 0.0000
vt 0.531300 0.921900 0.0000
vt 0.375000 1.000000 0.0000
vt 0.875000 0.000000 0.0000
vt 0.781300 0.250000 0.0000
# 167 texture coords

g wall_pCube1
usemtl lambert2
f 1/1/1 2/2/1 3/3/1 
f 3/3/1 4/4/1 1/1/1 
f 5/5/2 6/6/2 7/7/2 
f 7/7/2 8/8/2 5/5/2 
f 9/9/3 10/10/3 11/11/3 
f 12/12/4 13/13/4 14/14/4 
f 15/15/5 16/16/5 17/17/5 
f 18/18/6 19/19/6 20/20/6 
f 21/21/7 22/22/7 23/23/7 
f 23/23/7 24/24/7 21/21/7 
f 25/25/8 26/26/8 27/27/8 
f 27/27/8 28/28/8 25/25/8 
f 29/29/9 30/30/9 31/31/9 
f 4/4/10 32/32/10 33/33/10 
f 33/33/10 34/34/10 4/4/10 
f 14/14/11 35/35/11 36/36/11 
f 37/37/12 38/38/12 39/39/12 
f 39/39/12 40/40/12 37/37/12 
f 41/41/13 42/42/13 43/43/13 
f 43/43/13 44/44/13 41/41/13 
f 44/44/14 45/45/14 46/46/14 
f 46/46/14 47/47/14 44/44/14 
f 8/8/15 48/48/15 49/49/15 
f 50/50/16 22/22/16 51/51/16 
f 52/52/17 53/53/17 54/54/17 
f 55/55/18 56/56/18 57/57/18 
f 55/55/19 58/58/19 59/59/19 
f 16/16/20 60/60/20 61/61/20 
f 61/61/20 17/17/20 16/16/20 
f 17/17/21 62/62/21 63/63/21 
f 16/16/22 64/64/22 59/59/22 
f 17/17/23 42/42/23 65/65/23 
f 65/65/24 66/66/24 67/67/24 
f 67/67/24 3/3/24 65/65/24 
f 68/68/25 2/2/25 15/15/25 
f 69/69/26 70/70/26 71/71/26 
f 71/71/26 72/72/26 69/69/26 
f 73/73/27 74/74/27 75/75/27 
f 75/75/27 76/76/27 73/73/27 
f 76/76/28 77/77/28 78/78/28 
f 78/78/28 20/20/28 76/76/28 
f 79/79/29 80/80/29 81/81/29 
f 81/81/30 82/82/30 83/83/30 
f 83/83/30 84/84/30 81/81/30 
f 85/85/31 86/86/31 47/47/31 
f 47/47/31 87/87/31 85/85/31 
f 88/88/32 89/89/32 90/90/32 
f 90/90/32 91/91/32 88/88/32 
f 91/91/33 26/26/33 92/92/33 
f 92/92/33 93/93/33 91/91/33 
f 56/94/34 94/95/34 95/96/34 
f 96/97/35 35/98/35 34/99/35 
f 34/99/35 97/100/35 96/97/35 
f 97/100/36 98/101/36 99/102/36 
f 99/102/36 100/103/36 97/100/36 
f 101/104/37 6/6/37 102/105/37 
f 102/105/37 29/29/37 101/104/37 
f 103/106/38 89/107/38 104/108/38 
f 104/108/38 105/109/38 103/106/38 
f 105/109/39 106/110/39 107/111/39 
f 107/111/39 103/106/39 105/109/39 
f 74/112/40 107/111/40 75/113/40 
f 61/61/17 70/114/17 108/115/17 
f 109/116/41 110/117/41 111/118/41 
f 110/117/42 38/119/42 112/120/42 
f 9/9/42 82/121/42 113/122/42 
f 113/122/42 10/10/42 9/9/42 
f 3/3/43 67/67/43 32/32/43 
f 32/32/43 4/4/43 3/3/43 
f 4/4/44 13/13/44 1/1/44 
f 114/123/45 115/124/45 112/125/45 
f 112/125/46 38/38/46 37/37/46 
f 37/37/46 114/123/46 112/125/46 
f 37/37/47 86/86/47 114/123/47 
f 7/7/48 99/102/48 116/126/48 
f 116/126/48 8/8/48 7/7/48 
f 116/126/49 48/48/49 8/8/49 
f 61/61/17 60/60/17 117/127/17 
f 117/127/17 52/52/17 61/61/17 
f 14/14/50 36/36/50 94/128/50 
f 94/128/50 12/12/50 14/14/50 
f 94/128/51 56/56/51 55/55/51 
f 55/55/51 12/12/51 94/128/51 
f 60/60/52 16/16/52 118/129/52 
f 16/16/53 58/58/53 118/129/53 
f 17/17/54 63/63/54 43/43/54 
f 43/43/55 42/42/55 17/17/55 
f 17/17/56 68/68/56 15/15/56 
f 63/63/57 62/62/57 119/130/57 
f 119/130/57 120/131/57 63/63/57 
f 119/130/58 69/69/58 45/45/58 
f 45/45/58 120/131/58 119/130/58 
f 72/72/59 71/71/59 121/132/59 
f 121/132/59 122/133/59 72/72/59 
f 121/132/60 74/74/60 73/73/60 
f 73/73/60 122/133/60 121/132/60 
f 20/20/61 78/78/61 123/134/61 
f 123/134/61 18/18/61 20/20/61 
f 123/134/62 80/80/62 79/79/62 
f 79/79/62 18/18/62 123/134/62 
f 124/135/63 125/136/63 21/21/63 
f 21/21/63 24/24/63 124/135/63 
f 27/27/64 126/137/64 54/138/64 
f 54/138/64 28/28/64 27/27/64 
f 54/138/65 53/139/65 28/28/65 
f 36/140/66 35/98/66 96/97/66 
f 96/97/66 31/31/66 36/140/66 
f 96/97/67 29/29/67 31/31/67 
f 52/52/68 126/141/68 90/142/68 
f 90/142/68 103/106/68 52/52/68 
f 90/142/69 89/107/69 103/106/69 
f 71/143/17 70/114/17 61/61/17 
f 98/144/70 109/116/70 111/118/70 
f 111/118/70 99/145/70 98/144/70 
f 66/66/71 110/117/71 67/67/71 
f 110/117/42 115/146/42 83/147/42 
f 83/147/42 9/9/42 110/117/42 
f 83/147/42 82/121/42 9/9/42 
f 34/34/72 35/35/72 14/14/72 
f 14/14/73 13/13/73 4/4/73 
f 4/4/73 34/34/73 14/14/73 
f 1/1/74 64/64/74 2/2/74 
f 39/39/75 42/42/75 40/40/75 
f 42/42/76 41/41/76 40/40/76 
f 41/41/77 37/37/77 40/40/77 
f 43/43/78 63/63/78 120/131/78 
f 120/131/78 44/44/78 43/43/78 
f 120/131/79 45/45/79 44/44/79 
f 44/44/80 37/37/80 41/41/80 
f 86/86/81 37/37/81 44/44/81 
f 44/44/81 47/47/81 86/86/81 
f 127/148/2 5/5/2 8/8/2 
f 23/23/82 22/22/82 50/50/82 
f 50/50/82 128/149/82 23/23/82 
f 50/50/83 5/5/83 127/148/83 
f 127/148/83 128/149/83 50/50/83 
f 22/22/84 129/150/84 102/105/84 
f 102/105/84 51/51/84 22/22/84 
f 102/105/85 6/6/85 5/5/85 
f 5/5/85 51/51/85 102/105/85 
f 5/5/86 50/50/86 51/51/86 
f 117/127/17 130/151/17 53/53/17 
f 53/53/17 52/52/17 117/127/17 
f 54/54/87 126/141/87 52/52/87 
f 71/143/17 61/61/17 52/52/17 
f 49/152/88 48/153/88 116/154/88 
f 116/154/88 131/155/88 49/152/88 
f 116/154/89 9/9/89 11/11/89 
f 11/11/89 131/155/89 116/154/89 
f 99/145/90 111/118/90 9/9/90 
f 9/9/90 116/154/90 99/145/90 
f 111/118/91 110/117/91 9/9/91 
f 56/56/92 130/151/92 117/127/92 
f 117/127/92 57/57/92 56/56/92 
f 117/127/93 60/60/93 118/129/93 
f 118/129/93 57/57/93 117/127/93 
f 118/129/94 58/58/94 55/55/94 
f 55/55/94 57/57/94 118/129/94 
f 59/59/95 64/64/95 1/1/95 
f 1/1/96 13/13/96 12/12/96 
f 12/12/96 59/59/96 1/1/96 
f 12/12/97 55/55/97 59/59/97 
f 61/61/98 62/62/98 17/17/98 
f 58/58/99 16/16/99 59/59/99 
f 42/42/100 39/39/100 66/66/100 
f 66/66/100 65/65/100 42/42/100 
f 65/65/101 68/68/101 17/17/101 
f 3/3/102 2/2/102 68/68/102 
f 68/68/103 65/65/103 3/3/103 
f 2/2/104 64/64/104 15/15/104 
f 64/64/105 16/16/105 15/15/105 
f 62/62/106 61/61/106 108/156/106 
f 108/156/106 119/130/106 62/62/106 
f 108/156/107 70/70/107 69/69/107 
f 69/69/107 119/130/107 108/156/107 
f 45/45/108 69/69/108 72/72/108 
f 72/72/108 46/46/108 45/45/108 
f 75/75/109 107/157/109 77/77/109 
f 77/77/109 76/76/109 75/75/109 
f 19/19/110 73/73/110 76/76/110 
f 76/76/110 20/20/110 19/19/110 
f 46/46/111 72/72/111 122/133/111 
f 122/133/111 132/158/111 46/46/111 
f 122/133/112 73/73/112 19/19/112 
f 19/19/112 132/158/112 122/133/112 
f 80/80/113 10/159/113 113/160/113 
f 113/160/113 81/81/113 80/80/113 
f 113/160/114 82/82/114 81/81/114 
f 83/83/115 115/124/115 114/123/115 
f 114/123/115 84/84/115 83/83/115 
f 114/123/116 86/86/116 85/85/116 
f 85/85/116 84/84/116 114/123/116 
f 85/85/117 79/79/117 81/81/117 
f 81/81/117 84/84/117 85/85/117 
f 47/47/118 46/46/118 132/158/118 
f 132/158/118 87/87/118 47/47/118 
f 132/158/119 19/19/119 18/18/119 
f 18/18/119 87/87/119 132/158/119 
f 18/18/120 79/79/120 85/85/120 
f 85/85/120 87/87/120 18/18/120 
f 104/161/121 89/89/121 88/88/121 
f 88/88/121 133/162/121 104/161/121 
f 88/88/122 125/136/122 124/135/122 
f 124/135/122 133/162/122 88/88/122 
f 90/90/123 126/137/123 27/27/123 
f 27/27/123 91/91/123 90/90/123 
f 27/27/124 26/26/124 91/91/124 
f 91/91/125 125/136/125 88/88/125 
f 92/92/126 129/150/126 22/22/126 
f 22/22/126 93/93/126 92/92/126 
f 22/22/126 21/21/126 93/93/126 
f 21/21/127 125/136/127 91/91/127 
f 91/91/127 93/93/127 21/21/127 
f 53/139/128 130/163/128 56/94/128 
f 56/94/128 28/28/128 53/139/128 
f 56/94/129 25/25/129 28/28/129 
f 94/95/130 36/140/130 31/31/130 
f 31/31/130 95/96/130 94/95/130 
f 31/31/131 30/30/131 134/164/131 
f 134/164/131 95/96/131 31/31/131 
f 134/164/132 25/25/132 56/94/132 
f 56/94/132 95/96/132 134/164/132 
f 30/30/133 129/150/133 92/92/133 
f 92/92/133 134/164/133 30/30/133 
f 92/92/134 26/26/134 25/25/134 
f 25/25/134 134/164/134 92/92/134 
f 34/99/135 33/165/135 98/101/135 
f 98/101/135 97/100/135 34/99/135 
f 99/102/48 7/7/48 100/103/48 
f 7/7/136 6/6/136 101/104/136 
f 101/104/136 100/103/136 7/7/136 
f 101/104/137 96/97/137 97/100/137 
f 97/100/137 100/103/137 101/104/137 
f 102/105/138 129/150/138 30/30/138 
f 30/30/138 29/29/138 102/105/138 
f 29/29/139 96/97/139 101/104/139 
f 104/108/140 133/166/140 106/110/140 
f 106/110/140 105/109/140 104/108/140 
f 107/111/141 74/112/141 103/106/141 
f 74/112/142 71/143/142 52/52/142 
f 52/52/142 103/106/142 74/112/142 
f 121/167/17 71/143/17 74/112/17 
f 33/33/143 32/32/143 109/116/143 
f 109/116/143 98/144/143 33/33/143 
f 32/32/144 67/67/144 109/116/144 
f 67/67/145 110/117/145 109/116/145 
f 39/39/146 38/119/146 110/117/146 
f 110/117/146 66/66/146 39/39/146 
f 112/120/42 115/146/42 110/117/42 
# 249 faces

